<svg width="25" height="24" viewBox="0 0 25 24" fill="none" xmlns="http://www.w3.org/2000/svg">
<path d="M12.0158 2.012C6.70576 2.262 2.51676 6.652 2.53276 11.929C2.53539 13.4823 2.90728 15.0127 3.61776 16.394L2.55976 21.495C2.54685 21.5588 2.55023 21.6248 2.56959 21.6869C2.58894 21.749 2.62365 21.8053 2.6705 21.8504C2.71735 21.8956 2.77483 21.9282 2.83763 21.9452C2.90042 21.9623 2.9665 21.9633 3.02976 21.948L8.06376 20.764C9.39704 21.4229 10.8607 21.7755 12.3478 21.796C17.7748 21.879 22.2988 17.601 22.4678 12.216C22.6498 6.441 17.8508 1.735 12.0158 2.011V2.012ZM18.0228 17.379C17.2972 18.1019 16.4362 18.6746 15.489 19.0641C14.5417 19.4536 13.527 19.6524 12.5028 19.649C11.2978 19.6527 10.1084 19.3761 9.02876 18.841L8.32776 18.494L5.24076 19.22L5.89076 16.089L5.54476 15.417C4.98386 14.3297 4.693 13.1234 4.69676 11.9C4.69676 9.83 5.50876 7.883 6.98276 6.42C8.45196 4.9657 10.4355 4.14964 12.5028 4.149C14.5888 4.149 16.5488 4.955 18.0228 6.419C18.749 7.13464 19.3253 7.98785 19.7179 8.92877C20.1106 9.86969 20.3118 10.8794 20.3098 11.899C20.3098 13.951 19.4848 15.929 18.0228 17.38V17.379Z" fill="white"/>
<path d="M17.3419 14.045L15.4109 13.495C15.2863 13.4592 15.1544 13.4576 15.0289 13.4903C14.9035 13.5231 14.7891 13.5889 14.6979 13.681L14.2259 14.159C14.1282 14.2579 14.0036 14.3259 13.8675 14.3543C13.7314 14.3828 13.59 14.3705 13.4609 14.319C12.5479 13.952 10.6259 12.256 10.1349 11.407C10.0661 11.2871 10.0346 11.1493 10.0446 11.0114C10.0546 10.8735 10.1055 10.7418 10.1909 10.633L10.6029 10.103C10.6822 10.0015 10.7324 9.88023 10.7481 9.75234C10.7638 9.62445 10.7443 9.4947 10.6919 9.377L9.87989 7.553C9.83397 7.45105 9.76502 7.36114 9.67848 7.29034C9.59193 7.21954 9.49014 7.16979 9.38111 7.14498C9.27209 7.12017 9.15879 7.12098 9.05013 7.14736C8.94147 7.17374 8.84041 7.22496 8.75489 7.297C8.21589 7.75 7.57589 8.437 7.49889 9.2C7.36189 10.543 7.94189 12.236 10.1359 14.27C12.6709 16.619 14.7019 16.93 16.0229 16.611C16.7729 16.431 17.3729 15.708 17.7499 15.117C17.8102 15.0231 17.8476 14.9164 17.8592 14.8054C17.8707 14.6945 17.856 14.5823 17.8163 14.4781C17.7767 14.3738 17.7131 14.2803 17.6307 14.2051C17.5483 14.1299 17.4493 14.075 17.3419 14.045Z" fill="white"/>
</svg>
