<svg width="163" height="141" viewBox="0 0 163 141" fill="none" xmlns="http://www.w3.org/2000/svg">
<path d="M9.24275 124.512C7.92008 124.512 6.89608 124.149 6.17075 123.424C5.48808 122.656 5.14675 121.611 5.14675 120.288V82.528C5.14675 81.1627 5.48808 80.1387 6.17075 79.456C6.89608 78.7307 7.92008 78.368 9.24275 78.368C10.5654 78.368 11.5681 78.7307 12.2508 79.456C12.9761 80.1387 13.3388 81.1627 13.3388 82.528V98.848H13.4668L31.8348 80.416C32.5174 79.7333 33.2001 79.2213 33.8828 78.88C34.5654 78.5387 35.3334 78.368 36.1868 78.368C37.4241 78.368 38.2988 78.688 38.8108 79.328C39.3654 79.968 39.5788 80.7147 39.4508 81.568C39.3654 82.4213 38.9601 83.2107 38.2348 83.936L19.5468 102.432L19.6108 98.72L39.1308 118.56C40.0268 119.413 40.4961 120.309 40.5388 121.248C40.5814 122.187 40.2828 122.976 39.6428 123.616C39.0454 124.213 38.1494 124.512 36.9548 124.512C35.9308 124.512 35.0988 124.299 34.4588 123.872C33.8614 123.445 33.1574 122.827 32.3468 122.016L13.4668 103.136H13.3388V120.288C13.3388 121.611 12.9974 122.656 12.3148 123.424C11.6321 124.149 10.6081 124.512 9.24275 124.512ZM57.2453 124.64C54.9839 124.64 52.9573 124.213 51.1653 123.36C49.4159 122.464 48.0293 121.269 47.0052 119.776C46.0239 118.283 45.5333 116.597 45.5333 114.72C45.5333 112.416 46.1306 110.603 47.3253 109.28C48.5199 107.915 50.4613 106.933 53.1493 106.336C55.8373 105.739 59.4426 105.44 63.9653 105.44H67.1653V110.048H64.0293C61.3839 110.048 59.2719 110.176 57.6933 110.432C56.1146 110.688 54.9839 111.136 54.3013 111.776C53.6613 112.373 53.3413 113.227 53.3413 114.336C53.3413 115.744 53.8319 116.896 54.8133 117.792C55.7946 118.688 57.1599 119.136 58.9093 119.136C60.3173 119.136 61.5546 118.816 62.6213 118.176C63.7306 117.493 64.6053 116.576 65.2453 115.424C65.8853 114.272 66.2053 112.949 66.2053 111.456V104.096C66.2053 101.963 65.7359 100.427 64.7973 99.488C63.8586 98.5493 62.2799 98.08 60.0613 98.08C58.8239 98.08 57.4799 98.2293 56.0293 98.528C54.6213 98.8267 53.1279 99.3387 51.5493 100.064C50.7386 100.448 50.0133 100.555 49.3733 100.384C48.7759 100.213 48.3066 99.872 47.9653 99.36C47.6239 98.8053 47.4533 98.208 47.4533 97.568C47.4533 96.928 47.6239 96.3093 47.9653 95.712C48.3066 95.072 48.8826 94.6027 49.6933 94.304C51.6559 93.4933 53.5333 92.9173 55.3253 92.576C57.1599 92.2347 58.8239 92.064 60.3173 92.064C63.3893 92.064 65.9066 92.5333 67.8693 93.472C69.8746 94.4107 71.3679 95.84 72.3493 97.76C73.3306 99.6373 73.8213 102.069 73.8213 105.056V120.416C73.8213 121.739 73.5013 122.763 72.8613 123.488C72.2213 124.171 71.3039 124.512 70.1093 124.512C68.9146 124.512 67.9759 124.171 67.2933 123.488C66.6533 122.763 66.3333 121.739 66.3333 120.416V117.344H66.8453C66.5466 118.837 65.9493 120.139 65.0533 121.248C64.1999 122.315 63.1119 123.147 61.7893 123.744C60.4666 124.341 58.9519 124.64 57.2453 124.64ZM93.3973 124.64C91.5626 124.64 89.6213 124.448 87.5733 124.064C85.5253 123.68 83.6906 123.019 82.0693 122.08C81.3866 121.653 80.8959 121.163 80.5973 120.608C80.3413 120.011 80.2346 119.435 80.2773 118.88C80.3626 118.283 80.5759 117.771 80.9173 117.344C81.3013 116.917 81.7706 116.64 82.3253 116.512C82.9226 116.384 83.5626 116.491 84.2453 116.832C85.9519 117.643 87.5519 118.219 89.0453 118.56C90.5386 118.859 92.0106 119.008 93.4613 119.008C95.5093 119.008 97.0239 118.667 98.0053 117.984C99.0293 117.259 99.5413 116.32 99.5413 115.168C99.5413 114.187 99.1999 113.44 98.5173 112.928C97.8773 112.373 96.8959 111.968 95.5733 111.712L89.1733 110.496C86.5279 109.984 84.5013 109.024 83.0933 107.616C81.7279 106.165 81.0453 104.309 81.0453 102.048C81.0453 100 81.5999 98.2293 82.7093 96.736C83.8613 95.2427 85.4399 94.0907 87.4453 93.28C89.4506 92.4693 91.7546 92.064 94.3573 92.064C96.2346 92.064 97.9839 92.2773 99.6053 92.704C101.269 93.088 102.869 93.7067 104.405 94.56C105.045 94.9013 105.472 95.3493 105.685 95.904C105.941 96.4587 106.005 97.0347 105.877 97.632C105.749 98.1867 105.493 98.6987 105.109 99.168C104.725 99.5947 104.235 99.872 103.637 100C103.083 100.085 102.443 99.9573 101.717 99.616C100.395 98.9333 99.1146 98.4427 97.8773 98.144C96.6826 97.8453 95.5306 97.696 94.4213 97.696C92.3306 97.696 90.7733 98.0587 89.7493 98.784C88.7679 99.5093 88.2773 100.469 88.2773 101.664C88.2773 102.56 88.5759 103.307 89.1733 103.904C89.7706 104.501 90.6879 104.907 91.9253 105.12L98.3253 106.336C101.099 106.848 103.189 107.787 104.597 109.152C106.048 110.517 106.773 112.352 106.773 114.656C106.773 117.771 105.557 120.224 103.125 122.016C100.693 123.765 97.4506 124.64 93.3973 124.64ZM117.159 124.448C115.879 124.448 114.898 124.064 114.215 123.296C113.533 122.528 113.191 121.461 113.191 120.096V96.608C113.191 95.2 113.533 94.1333 114.215 93.408C114.898 92.64 115.879 92.256 117.159 92.256C118.439 92.256 119.421 92.64 120.103 93.408C120.829 94.1333 121.191 95.2 121.191 96.608V120.096C121.191 121.461 120.85 122.528 120.167 123.296C119.485 124.064 118.482 124.448 117.159 124.448ZM117.159 86.304C115.666 86.304 114.493 85.9413 113.639 85.216C112.829 84.448 112.423 83.4027 112.423 82.08C112.423 80.7147 112.829 79.6693 113.639 78.944C114.493 78.2187 115.666 77.856 117.159 77.856C118.695 77.856 119.869 78.2187 120.679 78.944C121.49 79.6693 121.895 80.7147 121.895 82.08C121.895 83.4027 121.49 84.448 120.679 85.216C119.869 85.9413 118.695 86.304 117.159 86.304ZM133.472 124.512C132.192 124.512 131.21 124.171 130.528 123.488C129.845 122.763 129.504 121.739 129.504 120.416V82.4C129.504 81.0773 129.845 80.0747 130.528 79.392C131.21 78.7093 132.192 78.368 133.472 78.368C134.752 78.368 135.733 78.7093 136.416 79.392C137.141 80.0747 137.504 81.0773 137.504 82.4V98.976H136.608C137.546 96.7147 138.997 95.008 140.96 93.856C142.965 92.6613 145.226 92.064 147.744 92.064C150.261 92.064 152.33 92.5333 153.952 93.472C155.573 94.4107 156.789 95.84 157.6 97.76C158.41 99.6373 158.816 102.027 158.816 104.928V120.416C158.816 121.739 158.474 122.763 157.792 123.488C157.109 124.171 156.128 124.512 154.848 124.512C153.568 124.512 152.565 124.171 151.84 123.488C151.157 122.763 150.816 121.739 150.816 120.416V105.312C150.816 102.88 150.346 101.109 149.408 100C148.512 98.8907 147.104 98.336 145.184 98.336C142.837 98.336 140.96 99.0827 139.552 100.576C138.186 102.027 137.504 103.968 137.504 106.4V120.416C137.504 123.147 136.16 124.512 133.472 124.512Z" fill="#FAABA2"/>
<path d="M49.5918 39.2632C29.5516 23.5538 28.3914 15.7732 32.6395 8.03431C39.3603 -4.20885 58.1128 1.64193 70.3881 21.8435C80.2578 38.086 79.651 61.0852 79.034 69.4759C78.9611 70.4674 77.6395 70.7397 77.1243 69.8911C73.716 64.2794 64.8069 51.1903 49.5918 39.2632Z" fill="#89BAFA"/>
<path d="M100.033 50.2741C109.267 43.4917 126.225 32.7094 119.38 21.5157C112.536 10.322 96.2779 20.0486 87.9964 35.3248C81.5526 47.2114 81.1688 60.3512 81.3158 65.5973C81.3406 66.4868 82.4062 66.8494 83.0023 66.1912C86.042 62.8345 93.0727 55.3869 100.033 50.2741Z" fill="#89BAFA"/>
</svg>
